<svg viewBox="0 0 100 100" fill="none" xmlns="http://www.w3.org/2000/svg">
  <circle cx="50" cy="50" r="45" stroke="#111827" stroke-width="6" />
  <g transform="rotate(0 50 50)">
    <path d="M50 50 L50 15 C65 15 80 30 85 50 Z" fill="#DC2626" transform="rotate(0 50 50)" />
    <path d="M50 50 L50 15 C65 15 80 30 85 50 Z" fill="#DC2626" transform="rotate(45 50 50)" />
    <path d="M50 50 L50 15 C65 15 80 30 85 50 Z" fill="#DC2626" transform="rotate(90 50 50)" />
    <path d="M50 50 L50 15 C65 15 80 30 85 50 Z" fill="#DC2626" transform="rotate(135 50 50)" />
    <path d="M50 50 L50 15 C65 15 80 30 85 50 Z" fill="#DC2626" transform="rotate(180 50 50)" />
    <path d="M50 50 L50 15 C65 15 80 30 85 50 Z" fill="#DC2626" transform="rotate(225 50 50)" />
    <path d="M50 50 L50 15 C65 15 80 30 85 50 Z" fill="#DC2626" transform="rotate(270 50 50)" />
    <path d="M50 50 L50 15 C65 15 80 30 85 50 Z" fill="#DC2626" transform="rotate(315 50 50)" />
  </g>
  <circle cx="50" cy="50" r="10" fill="white" stroke="#111827" stroke-width="1.5" />
  <circle cx="50" cy="50" r="5" fill="#111827" />
</svg>